<svg xmlns="http://www.w3.org/2000/svg" viewBox="0 0 215.87 58.64"><defs><style>.cls-1{fill:#fff;}</style></defs><title>navPakOne</title><g id="Layer_2" data-name="Layer 2"><g id="Layer_1-2" data-name="Layer 1"><path class="cls-1" d="M48,13.5,40.55,45.14H35.13L26.94,28l-4,17.18H15.69L23.08,13.5h5.43l8.2,17.18,4-17.18Z"/><path class="cls-1" d="M67.69,40.17H55.94l-2.75,5H45.28L63.46,13.5h9.23L76,45.14H68.11Zm-.57-6.78-1-11.62L59.7,33.39Z"/><path class="cls-1" d="M82.67,13.5h7.92l1.53,23.28L104.61,13.5h7.92L94.76,45.14H85.53Z"/><path class="cls-1" d="M138.93,24.31a11,11,0,0,1-11.16,10.93H123v10h-7.28V13.38h12.06A11,11,0,0,1,138.93,24.31Zm-7.28,0a3.9,3.9,0,0,0-3.88-4.1H123v8.2h4.78A3.9,3.9,0,0,0,131.65,24.31Z"/><path class="cls-1" d="M160.08,40.25H148.24l-1.6,5h-8l10.84-31.88h9.29l10.84,31.88h-8Zm-2.19-6.83-3.73-11.71-3.74,11.71Z"/><polygon class="cls-1" points="200.17 45.26 190.22 30.69 199.72 13.38 191.88 13.38 174.4 45.26 182.23 45.26 186.53 37.42 191.88 45.26 200.17 45.26"/><polygon class="cls-1" points="181.68 30.51 181.68 27.23 181.68 13.38 174.4 13.38 174.4 45.26 181.68 45.26 181.68 30.51"/><path class="cls-1" d="M215.87,58.64H0V0H215.87ZM3.74,54.91H212.13V3.74H3.74Z"/></g></g></svg>