<svg xmlns="http://www.w3.org/2000/svg" viewBox="0 0 112.65 98.74"><defs><style>.cls-1{fill:#265df1;}</style></defs><title>navPakFive</title><g id="Layer_2" data-name="Layer 2"><g id="Layer_1-2" data-name="Layer 1"><path class="cls-1" d="M40.37,14.34V43.76h-5L24,27.79v16H17.25V14.34h5l11.35,16v-16Z"/><path class="cls-1" d="M62.65,39.14H51.73l-1.47,4.62H42.9l10-29.42h8.58l10,29.42H64.13Zm-2-6.3L57.19,22l-3.44,10.8Z"/><path class="cls-1" d="M69.82,14.34h7.35L83.69,36,90.2,14.34h7.36L88,43.76H79.4Z"/><path class="cls-1" d="M40.32,63.45A11,11,0,0,1,29.16,74.38H24.38v10H17.09V52.52H29.16A11,11,0,0,1,40.32,63.45Zm-7.29,0a3.89,3.89,0,0,0-3.87-4.1H24.38v8.2h4.78A3.9,3.9,0,0,0,33,63.45Z"/><path class="cls-1" d="M59.46,79.39H47.62L46,84.4h-8L48.9,52.52h9.29L69,84.4h-8Zm-2.18-6.83L53.54,60.85,49.81,72.56Z"/><polygon class="cls-1" points="97.56 84.4 87.61 69.83 97.1 52.52 89.27 52.52 71.78 84.4 79.61 84.4 83.91 76.56 89.27 84.4 97.56 84.4"/><polygon class="cls-1" points="79.07 69.64 79.07 66.36 79.07 52.52 71.78 52.52 71.78 84.4 79.07 84.4 79.07 69.64"/><path class="cls-1" d="M112.65,98.74H0V0H112.65ZM3.74,95H108.91V3.74H3.74Z"/></g></g></svg>